<svg width="32" height="33" viewBox="0 0 32 33" fill="none" xmlns="http://www.w3.org/2000/svg">
<path d="M13.3334 11.1663C13.3334 13.6805 13.3334 14.9375 12.5524 15.7186C11.7713 16.4997 10.5142 16.4997 8.00008 16.4997C5.48592 16.4997 4.22884 16.4997 3.4478 15.7186C2.66675 14.9375 2.66675 13.6805 2.66675 11.1663C2.66675 8.65218 2.66675 7.3951 3.4478 6.61406C4.22884 5.83301 5.48592 5.83301 8.00008 5.83301C10.5142 5.83301 11.7713 5.83301 12.5524 6.61406C13.3334 7.3951 13.3334 8.65218 13.3334 11.1663Z" stroke="#329C02" stroke-width="1.5"/>
<path d="M13.3332 9.83301V15.8091C13.3332 21.1059 9.97897 25.5979 5.33325 27.1663" stroke="#329C02" stroke-width="1.5" stroke-linecap="round"/>
<path d="M29.3333 11.1663C29.3333 13.6805 29.3333 14.9375 28.5523 15.7186C27.7712 16.4997 26.5141 16.4997 24 16.4997C21.4859 16.4997 20.2288 16.4997 19.4477 15.7186C18.6667 14.9375 18.6667 13.6805 18.6667 11.1663C18.6667 8.65218 18.6667 7.3951 19.4477 6.61406C20.2288 5.83301 21.4859 5.83301 24 5.83301C26.5141 5.83301 27.7712 5.83301 28.5523 6.61406C29.3333 7.3951 29.3333 8.65218 29.3333 11.1663Z" stroke="#329C02" stroke-width="1.5"/>
<path d="M29.3333 9.83301V15.8091C29.3333 21.1059 25.9791 25.5979 21.3333 27.1663" stroke="#329C02" stroke-width="1.5" stroke-linecap="round"/>
</svg>
